{
  "accessors": [
    {
      "bufferView": 0,
      "componentType": 5125,
      "count": 12516,
      "type": "SCALAR"
    },
    {
      "bufferView": 1,
      "componentType": 5126,
      "count": 2229,
      "max": [
        4.8467230796814,
        14.9801063537598,
        4.86637020111084
      ],
      "min": [
        -4.84671401977539,
        0.0198550224304199,
        -4.86137914657593
      ],
      "type": "VEC3"
    },
    {
      "bufferView": 2,
      "componentType": 5126,
      "count": 2229,
      "type": "VEC3"
    },
    {
      "bufferView": 3,
      "componentType": 5126,
      "count": 2229,
      "type": "VEC2"
    }
  ],
  "asset": {
    "generator": "Substance Painter 6.1.0",
    "version": "2.0"
  },
  "bufferViews": [
    {
      "buffer": 0,
      "byteLength": 50064,
      "target": 34963
    },
    {
      "buffer": 0,
      "byteLength": 26748,
      "byteOffset": 50064,
      "target": 34962
    },
    {
      "buffer": 0,
      "byteLength": 26748,
      "byteOffset": 76812,
      "target": 34962
    },
    {
      "buffer": 0,
      "byteLength": 17832,
      "byteOffset": 103560,
      "target": 34962
    }
  ],
  "buffers": [
    {
      "byteLength": 121392,
      "uri": "Bunny Lamp.bin"
    }
  ],
  "images": [
    {
      "uri": "initialShadingGroup_baseColor.png"
    },
    {
      "uri": "initialShadingGroup_occlusionRoughnessMetallic.png"
    },
    {
      "uri": "initialShadingGroup_normal.png"
    },
    {
      "uri": "initialShadingGroup_emissive.png"
    }
  ],
  "materials": [
    {
      "alphaMode": "OPAQUE",
      "emissiveFactor": [
        1.0,
        1.0,
        1.0
      ],
      "emissiveTexture": {
        "index": 3
      },
      "name": "initialShadingGroup",
      "normalTexture": {
        "index": 2
      },
      "occlusionTexture": {
        "index": 1
      },
      "pbrMetallicRoughness": {
        "baseColorTexture": {
          "index": 0
        },
        "metallicRoughnessTexture": {
          "index": 1
        }
      }
    }
  ],
  "meshes": [
    {
      "name": "bunny:bunny",
      "primitives": [
        {
          "attributes": {
            "NORMAL": 2,
            "POSITION": 1,
            "TEXCOORD_0": 3
          },
          "indices": 0,
          "material": 0,
          "mode": 4
        }
      ]
    }
  ],
  "nodes": [
    {
      "children": [
        1
      ],
      "name": "Bunny_lamp.obj"
    },
    {
      "children": [
        2
      ],
      "name": "bunny:bunny"
    },
    {
      "mesh": 0,
      "name": "bunny:bunny"
    }
  ],
  "samplers": [
    {
      "magFilter": 9729,
      "minFilter": 9985,
      "wrapS": 10497,
      "wrapT": 10497
    }
  ],
  "scene": 0,
  "scenes": [
    {
      "name": "Scene",
      "nodes": [
        0
      ]
    }
  ],
  "textures": [
    {
      "sampler": 0,
      "source": 0
    },
    {
      "sampler": 0,
      "source": 1
    },
    {
      "sampler": 0,
      "source": 2
    },
    {
      "sampler": 0,
      "source": 3
    }
  ]
}